<?xml version="1.0" encoding="iso-8859-1"?>
<!-- Generator: Adobe Illustrator 19.0.0, SVG Export Plug-In . SVG Version: 6.00 Build 0)  -->
<svg version="1.1" id="Capa_1" xmlns="http://www.w3.org/2000/svg" xmlns:xlink="http://www.w3.org/1999/xlink" x="0px" y="0px"
	 viewBox="0 0 512 512" style="enable-background:new 0 0 512 512;" xml:space="preserve">
<path style="fill:#6F4F3C;" d="M311.952,482.422L311.952,482.422c-6.24-8.736-9.594-19.204-9.594-29.939V335.066h-61.811
	l30.905,169.98h28.857C311.947,505.046,318.716,491.892,311.952,482.422z"/>
<path style="fill:#B08D78;" d="M209.642,335.066v117.417c0,10.736-3.354,21.203-9.594,29.939l0,0
	c-6.764,9.47,0.005,22.624,11.643,22.624h28.856l30.905-169.98H209.642z"/>
<path style="fill:#936C56;" d="M281.047,482.422c-6.24-8.736-9.594-19.204-9.594-29.939V335.066h-30.905v117.417
	c0,10.736-3.354,21.203-9.594,29.939c-6.356,8.9-0.76,21.05,9.594,22.482v0.142h30.905v-0.142
	C281.808,503.471,287.404,491.321,281.047,482.422z"/>
<path style="fill:#6F4F3C;" d="M294.632,460.21c-4.267,0-7.726-3.459-7.726-7.726c0-22.879,8.909-44.389,25.088-60.566
	l30.509-30.509c3.017-3.017,7.91-3.017,10.926,0c3.017,3.017,3.017,7.91,0,10.926l-30.509,30.509
	c-13.259,13.259-20.561,30.889-20.561,49.64C302.358,456.75,298.899,460.21,294.632,460.21z"/>
<g>
	<circle style="fill:#A6B730;" cx="225.187" cy="44.823" r="37.869"/>
	<circle style="fill:#A6B730;" cx="87.411" cy="131.832" r="49.953"/>
</g>
<circle style="fill:#869325;" cx="462.047" cy="206.757" r="49.953"/>
<circle style="fill:#C8D45B;" cx="293.725" cy="78.294" r="71.34"/>
<circle style="fill:#A6B730;" cx="390.202" cy="137.406" r="81.755"/>
<circle style="fill:#869325;" cx="389.614" cy="282.929" r="97.404"/>
<circle style="fill:#C8D45B;" cx="189.873" cy="148.418" r="109.003"/>
<g>
	<circle style="fill:#A6B730;" cx="109.271" cy="241.104" r="109.271"/>
	<circle style="fill:#A6B730;" cx="292.798" cy="212.31" r="81.755"/>
</g>
<circle style="fill:#869325;" cx="213.35" cy="305.593" r="101.988"/>
<g>
</g>
<g>
</g>
<g>
</g>
<g>
</g>
<g>
</g>
<g>
</g>
<g>
</g>
<g>
</g>
<g>
</g>
<g>
</g>
<g>
</g>
<g>
</g>
<g>
</g>
<g>
</g>
<g>
</g>
</svg>
